<?xml version="1.0" standalone="no"?>
<!DOCTYPE svg PUBLIC "-//W3C//DTD SVG 20010904//EN"
 "http://www.w3.org/TR/2001/REC-SVG-20010904/DTD/svg10.dtd">
<svg version="1.0" xmlns="http://www.w3.org/2000/svg"
 width="331.000000pt" height="610.000000pt" viewBox="0 0 331.000000 610.000000"
 preserveAspectRatio="xMidYMid meet">
<metadata>
Created by potrace 1.16, written by Peter Selinger 2001-2019
</metadata>
<g transform="translate(0.000000,610.000000) scale(0.100000,-0.100000)"
fill="#000000" stroke="none">
<path d="M3 5812 c3 -254 6 -295 24 -357 15 -49 18 -74 11 -82 -7 -8 -7 -13
-1 -13 6 0 8 -11 5 -25 -2 -15 0 -25 7 -25 6 0 11 -13 11 -28 0 -16 3 -32 7
-36 4 -3 8 -17 10 -29 19 -140 46 -283 54 -288 5 -3 7 -14 3 -24 -5 -13 -4
-16 4 -11 7 4 12 2 12 -3 0 -6 -5 -11 -12 -11 -16 0 0 -13 35 -28 16 -7 26 -8
22 -3 -3 6 3 15 12 21 16 10 16 11 -2 5 -15 -5 -17 -3 -8 6 6 6 23 13 38 14
22 3 27 -1 32 -27 4 -18 9 -25 13 -18 5 9 9 9 14 1 4 -6 4 -11 -1 -11 -19 -1
24 -20 45 -20 12 0 25 -7 28 -15 4 -8 15 -15 26 -15 10 0 17 4 14 9 -4 5 5 8
19 6 14 -1 25 2 25 6 0 5 14 16 30 24 17 9 28 20 25 25 -4 6 -1 10 5 10 8 0
10 9 6 25 -6 22 -3 26 24 31 16 4 30 10 30 14 0 4 14 13 30 20 36 15 45 26 29
36 -8 4 -9 3 -5 -4 7 -11 1 -13 -59 -16 -8 -1 -14 4 -13 9 2 6 6 9 10 8 16 -6
7 15 -8 21 -9 4 -14 9 -11 13 4 3 12 1 19 -4 7 -5 21 -13 30 -16 15 -5 17 -1
13 31 -5 33 -4 35 9 19 12 -15 14 -15 19 -3 4 9 2 18 -4 21 -5 4 -7 10 -4 15
6 9 73 24 96 21 9 -1 28 3 44 9 20 8 31 7 41 -1 16 -13 19 -59 4 -59 -5 0 -1
-15 8 -32 20 -36 17 -59 -13 -118 -20 -38 -28 -167 -10 -173 16 -6 20 -64 15
-268 -1 -42 3 -86 10 -98 6 -12 8 -31 5 -41 -4 -12 -2 -20 4 -20 6 0 11 -9 11
-20 0 -13 -7 -20 -19 -20 -11 0 -26 -7 -35 -15 -8 -8 -19 -15 -25 -15 -6 0
-11 -4 -11 -10 0 -5 -7 -10 -16 -10 -9 0 -21 -13 -27 -30 -12 -32 -27 -40 -27
-14 0 11 -8 15 -28 12 -24 -3 -27 0 -27 25 -1 29 -17 52 -54 77 -12 8 -19 21
-16 28 3 9 -2 12 -18 10 -29 -4 -118 77 -110 100 4 10 2 13 -5 8 -7 -4 -12 -1
-12 9 0 8 -7 18 -15 21 -13 5 -13 9 -3 22 11 13 10 14 -9 4 -29 -16 -34 -15
-27 3 4 8 1 15 -5 15 -6 0 -11 7 -11 15 0 9 -6 12 -15 9 -11 -5 -13 -2 -8 12
5 13 3 16 -10 11 -13 -5 -17 0 -18 18 -3 46 -4 50 -19 51 -8 0 -23 4 -33 8
-10 5 -20 6 -23 3 -8 -8 24 -121 36 -125 5 -2 8 -7 5 -12 -8 -14 81 -163 200
-333 62 -89 125 -187 140 -217 80 -161 212 -356 314 -462 l44 -47 5 -155 5
-156 167 0 167 0 12 -52 c23 -100 95 -188 190 -231 62 -29 185 -30 256 -3 96
37 180 141 200 249 5 26 12 37 25 37 10 0 55 36 101 80 46 44 90 80 97 80 6 0
12 7 12 15 0 8 7 15 15 15 9 0 18 7 21 15 4 10 13 13 26 9 12 -3 27 1 39 12
14 12 19 13 19 4 0 -28 14 2 16 35 4 45 24 68 42 48 15 -15 52 -18 52 -3 0 6
-10 10 -22 10 -13 0 -18 4 -13 8 6 4 16 19 24 33 7 15 24 32 37 38 16 7 22 16
17 27 -5 13 -2 15 16 9 15 -4 21 -3 19 7 -2 7 2 12 9 11 8 -2 10 4 6 14 -4 11
-3 14 6 9 8 -5 12 -3 10 5 -3 27 1 40 11 34 6 -3 10 1 10 11 0 12 3 14 13 6 9
-8 12 -4 13 14 1 13 16 37 33 53 29 27 42 49 22 37 -5 -4 -7 4 -4 15 6 20 7
20 19 -7 l13 -29 -6 28 c-3 18 0 34 11 46 10 10 18 32 19 47 2 25 6 29 30 26
19 -3 27 1 27 12 0 9 5 16 11 16 5 0 7 -5 4 -10 -3 -6 0 -13 9 -16 8 -3 12
-12 9 -20 -3 -8 0 -14 6 -14 6 0 11 -7 11 -16 0 -8 5 -12 10 -9 6 4 9 -3 7
-16 -2 -13 -12 -26 -23 -30 -10 -4 -13 -8 -6 -8 7 -1 10 -5 7 -11 -10 -16 5
-12 32 10 33 25 62 25 168 -2 47 -12 87 -19 89 -17 2 2 -1 53 -6 113 l-10 110
-92 185 c-102 206 -236 417 -331 522 -33 36 -57 81 -99 182 -9 20 -24 54 -33
74 l-17 37 -8 -37 c-6 -28 -4 -44 7 -61 9 -13 17 -37 18 -55 1 -17 5 -31 9
-31 7 0 28 -56 28 -74 0 -6 -5 -4 -10 4 -8 13 -10 13 -10 -1 0 -9 10 -19 21
-22 20 -5 21 -10 15 -56 -7 -51 5 -75 22 -45 8 14 10 9 14 -20 3 -27 0 -36
-12 -37 -8 0 -3 -5 13 -11 15 -5 27 -16 27 -23 0 -7 7 -15 15 -19 16 -6 16
-26 1 -37 -5 -4 -2 -20 6 -36 13 -25 13 -33 1 -48 -7 -11 -13 -15 -13 -10 0 5
-4 5 -9 0 -6 -6 -6 -28 -2 -52 6 -32 5 -43 -4 -43 -15 0 -40 -55 -31 -68 3 -6
-1 -13 -10 -16 -8 -3 -13 -10 -10 -14 3 -5 -1 -21 -9 -35 -8 -15 -12 -41 -10
-58 3 -25 -1 -32 -22 -40 -14 -5 -23 -12 -19 -16 3 -3 1 -12 -5 -19 -8 -10
-16 -11 -30 -3 -15 8 -19 6 -19 -6 0 -10 5 -13 13 -9 6 4 4 -2 -6 -14 -11 -11
-16 -26 -12 -31 3 -7 -2 -11 -14 -11 -14 0 -21 -6 -21 -20 0 -11 7 -20 15 -20
21 0 19 -18 -2 -23 -16 -4 -16 -5 1 -6 12 -1 16 -6 12 -17 -3 -9 -6 -20 -6
-25 0 -5 -7 -9 -15 -9 -8 0 -15 -4 -15 -9 0 -5 -7 -8 -16 -7 -11 1 -17 -8 -20
-27 -1 -16 -11 -35 -21 -43 -10 -7 -14 -14 -10 -14 17 0 -19 -27 -46 -34 -15
-3 -27 -11 -27 -17 0 -6 4 -7 10 -4 5 3 7 0 4 -8 -4 -10 -15 -14 -35 -10 -23
3 -29 1 -29 -14 0 -15 2 -16 10 -3 7 10 10 11 10 2 0 -7 -7 -15 -15 -18 -8 -4
-12 -10 -9 -15 3 -5 -7 -10 -23 -10 -17 -1 -21 -3 -10 -6 9 -2 17 -8 17 -13 0
-4 -8 -6 -18 -3 -12 3 -24 -7 -39 -34 -13 -21 -23 -32 -23 -25 0 21 -20 13
-20 -9 0 -13 4 -18 12 -13 7 4 8 3 4 -4 -4 -6 -20 -10 -37 -8 -20 2 -29 0 -26
-8 6 -16 -19 -50 -31 -42 -5 3 -25 -12 -43 -34 -37 -43 -62 -59 -52 -33 4 10
2 14 -4 10 -6 -4 -26 9 -45 27 -118 115 -310 128 -438 30 -25 -19 -58 -52 -74
-74 -17 -22 -34 -36 -42 -33 -8 3 -11 9 -8 15 3 5 9 7 12 4 7 -7 42 23 42 36
0 13 -26 38 -33 32 -3 -3 -3 4 0 16 4 13 0 25 -8 31 -8 4 -14 16 -14 26 0 14
-8 18 -33 18 -20 0 -32 5 -32 13 0 7 -4 11 -8 8 -5 -3 -9 1 -10 9 -1 8 -3 21
-4 29 -1 15 -22 11 -47 -8 -12 -9 -12 -8 0 14 8 14 22 32 32 42 17 15 17 17 2
26 -16 8 -16 10 0 25 9 10 28 18 43 19 15 1 36 2 47 3 36 2 89 17 112 32 13 9
23 12 23 9 0 -4 10 0 23 8 12 8 33 16 47 18 14 2 36 15 50 31 13 15 30 27 37
27 6 0 15 5 19 12 5 7 2 9 -7 4 -8 -4 -2 4 14 18 49 45 33 59 -30 26 -21 -11
-48 -21 -60 -23 -12 -2 -26 -6 -29 -10 -11 -10 -24 -9 -24 3 0 6 7 10 15 10 8
0 15 5 15 10 0 6 6 10 14 10 8 0 17 7 20 16 9 24 8 27 -10 20 -15 -6 -15 -4
-2 16 9 13 22 23 29 23 8 0 17 4 21 10 13 19 19 -4 7 -27 -11 -21 -11 -22 4
-9 10 7 17 22 17 33 0 20 21 48 37 48 13 1 53 37 53 49 0 7 21 11 51 11 42 0
50 3 47 17 -4 23 -61 36 -122 29 -33 -4 -57 -1 -78 10 -37 19 -188 31 -188 15
0 -6 -6 -11 -14 -11 -8 0 -17 -6 -19 -12 -4 -9 -6 -9 -6 1 -1 11 -4 10 -14 -3
-11 -15 -17 -17 -35 -7 -13 7 -27 9 -33 5 -15 -9 -190 -16 -209 -8 -30 13 -58
10 -54 -6 3 -8 -1 -4 -8 9 -10 19 -10 25 0 29 6 2 12 10 12 18 0 9 4 13 9 10
5 -3 9 11 9 32 -1 95 32 142 99 142 24 0 43 -4 43 -10 0 -5 7 -10 15 -10 17 0
20 16 6 25 -6 3 -6 18 0 38 11 40 11 50 0 43 -13 -9 -7 19 8 38 7 9 10 16 6
16 -4 0 -2 6 4 13 6 8 8 16 5 20 -10 10 32 26 46 17 7 -4 24 -4 37 1 35 13 59
11 77 -7 21 -20 71 -10 91 19 15 22 22 122 7 113 -4 -2 -7 -20 -6 -40 2 -27
-4 -39 -22 -51 -26 -17 -64 -20 -64 -5 0 5 -22 17 -50 27 -29 10 -50 24 -50
32 0 12 -3 12 -12 3 -7 -7 -20 -12 -29 -12 -10 0 -21 -10 -24 -21 -6 -17 -9
-19 -17 -8 -7 10 -8 8 -4 -10 2 -13 -1 -30 -9 -37 -7 -8 -16 -31 -20 -52 -6
-40 -17 -45 -58 -27 -9 4 -23 2 -30 -4 -8 -6 -29 -8 -50 -4 -31 5 -43 15 -77
65 -22 32 -49 67 -60 78 -11 11 -20 26 -20 33 0 21 17 40 29 33 7 -5 11 1 11
14 0 12 -4 18 -10 15 -6 -4 -7 2 -1 17 4 13 13 24 20 24 24 3 25 5 9 15 -21
12 -24 31 -4 23 8 -3 17 0 21 6 4 6 1 9 -7 8 -9 -2 -13 11 -13 47 0 28 -4 56
-8 63 -10 15 -11 158 -1 173 4 6 1 15 -6 19 -9 5 -14 32 -16 72 -3 107 -13
173 -29 204 -8 16 -15 35 -15 43 0 8 -7 11 -20 8 -19 -5 -24 12 -6 24 4 4 3
10 -3 13 -6 4 -11 3 -11 -2 0 -6 -7 -12 -14 -15 -11 -4 -13 -1 -9 10 4 11 2
14 -5 9 -8 -5 -12 2 -13 21 l0 28 -10 -25 -10 -25 -18 22 c-10 12 -21 19 -25
16 -3 -4 -6 -1 -6 5 0 6 -6 9 -14 6 -8 -3 -17 0 -21 5 -3 6 -11 9 -16 5 -5 -3
-16 -1 -22 5 -17 13 -138 30 -200 28 -26 -1 -51 3 -55 9 -4 6 -15 10 -24 8
-10 -1 -20 2 -23 7 -4 5 -18 1 -33 -9 -25 -16 -26 -16 -19 2 5 14 4 17 -8 13
-8 -4 -17 -1 -21 5 -4 7 -9 6 -14 -2 -9 -15 -30 -4 -30 16 0 8 -7 14 -16 14
-14 0 -14 1 0 16 9 8 16 20 16 25 0 6 6 7 13 3 6 -4 9 -4 5 1 -4 4 -2 15 4 23
10 11 8 13 -12 10 -19 -2 -24 -8 -22 -25 2 -12 -2 -24 -8 -28 -6 -4 -10 7 -10
29 0 19 -6 37 -12 40 -9 4 -8 5 2 5 29 -2 40 1 40 11 0 6 -6 10 -12 9 -31 -4
-44 2 -44 21 0 11 4 20 8 20 4 0 8 -7 8 -15 0 -8 5 -15 11 -15 6 0 8 9 4 21
-5 15 -4 19 4 15 6 -4 21 -4 32 -1 16 5 18 10 10 18 -9 9 -14 8 -20 -2 -5 -8
-11 -9 -15 -3 -3 6 0 13 6 15 9 4 9 8 3 14 -5 4 -10 24 -11 43 0 34 10 50 31
50 6 0 6 -3 -1 -8 -12 -8 -14 -52 -2 -52 4 0 8 5 8 10 0 7 6 7 19 0 25 -13 31
-13 31 1 0 5 -5 7 -12 3 -8 -5 -9 -2 -5 10 4 10 7 22 7 27 0 6 4 8 9 5 5 -4 7
4 3 16 -3 14 -2 19 6 14 7 -4 12 -1 12 8 0 9 4 16 9 16 5 0 8 11 7 25 0 16 -6
23 -13 20 -7 -2 -13 0 -13 5 0 6 4 10 10 10 5 0 7 6 4 14 -3 8 -1 17 5 21 6 3
11 14 11 23 0 13 -5 12 -20 -8 -11 -14 -20 -20 -20 -13 0 6 5 15 11 19 6 3 8
15 6 26 -4 15 -1 18 14 13 14 -5 17 -3 13 10 -6 13 -28 15 -165 14 l-159 -1 3
-286z m1541 -2569 l79 -25 81 25 c45 14 89 28 99 32 14 6 5 -17 -33 -86 -27
-52 -71 -133 -97 -181 -26 -48 -48 -86 -49 -85 -1 1 -29 54 -64 117 -34 63
-78 144 -98 179 -29 53 -31 63 -16 57 11 -4 55 -19 98 -33z"/>
<path d="M2346 6083 c-4 -10 -2 -13 8 -10 8 3 20 -1 27 -9 10 -12 9 -13 -5 -8
-19 7 -22 -12 -3 -19 9 -4 8 -8 -3 -16 -13 -9 -11 -11 6 -11 12 0 25 -8 28
-17 6 -15 8 -15 16 -3 6 9 10 10 10 3 0 -6 -4 -14 -10 -18 -5 -3 -7 -12 -3
-21 5 -12 7 -12 19 3 7 10 14 25 14 34 0 9 7 20 16 23 11 4 15 2 11 -7 -3 -8
-1 -20 4 -28 5 -9 3 -22 -7 -36 -8 -13 -10 -23 -5 -23 6 0 15 8 20 18 8 13 9
10 6 -16 -2 -18 0 -30 6 -27 5 4 9 1 9 -6 0 -7 11 -10 30 -7 37 6 37 3 3 -17
-16 -9 -21 -14 -11 -11 9 2 24 -2 35 -10 10 -9 12 -13 3 -9 -9 4 -8 1 3 -8 10
-8 14 -18 9 -21 -17 -10 -10 -55 11 -73 20 -18 20 -17 13 12 l-6 30 14 -25
c13 -22 13 -26 0 -37 -14 -10 -13 -13 4 -22 19 -10 29 -71 11 -71 -11 0 -8
-21 6 -35 6 -5 9 -9 6 -8 -4 3 -31 -24 -31 -31 0 -3 9 -6 21 -6 11 0 17 -4 14
-10 -3 -5 -1 -19 6 -31 6 -12 7 -19 1 -15 -7 4 -9 -9 -7 -34 2 -22 -1 -42 -6
-45 -4 -3 -6 -12 -3 -19 3 -8 -4 -31 -15 -52 -12 -21 -21 -44 -21 -50 0 -7
-10 -15 -22 -19 -22 -8 -22 -8 5 -12 31 -5 77 -64 77 -99 0 -13 3 -24 8 -26
13 -6 57 -102 54 -118 -2 -8 -9 -18 -15 -22 -7 -4 -8 -8 -2 -9 73 -7 105 -24
131 -69 10 -16 22 -30 26 -30 4 0 8 -9 8 -21 0 -13 -4 -18 -12 -13 -8 4 -8 2
1 -7 11 -11 14 -12 18 -1 4 10 12 7 30 -10 l25 -23 -21 35 c-26 43 -26 45 -1
47 11 1 18 -2 15 -7 -3 -5 0 -12 8 -17 21 -13 77 -90 77 -106 0 -12 19 -27 36
-27 3 0 -7 20 -21 43 -17 30 -25 58 -25 90 0 47 0 47 33 47 37 0 92 35 155 98
35 35 77 104 77 127 0 6 7 18 16 28 18 20 29 62 29 106 l-1 26 -16 -30 c-14
-27 -17 -28 -23 -10 -6 18 -7 18 -12 -3 -4 -12 -2 -25 3 -28 5 -3 9 -10 9 -15
0 -6 -4 -7 -10 -4 -6 4 -10 -9 -11 -32 -1 -21 -3 -30 -6 -20 -2 9 -8 17 -13
17 -12 0 -31 -36 -29 -53 4 -35 -6 -54 -64 -113 -51 -51 -70 -64 -95 -64 -40
0 -71 13 -100 40 -19 18 -22 28 -16 58 7 41 22 74 37 84 6 3 18 26 27 50 12
31 27 48 51 59 19 9 43 27 54 40 l20 23 -37 -22 c-20 -13 -38 -19 -41 -15 -12
21 -16 62 -7 68 5 3 10 16 10 28 -1 35 -39 -58 -57 -135 -9 -42 -20 -68 -28
-68 -23 0 -26 16 -15 109 9 84 9 95 -10 131 -19 37 -18 70 1 70 15 0 10 37 -6
50 -8 7 -15 20 -15 29 1 14 2 14 11 -1 5 -9 16 -15 23 -12 7 3 21 -2 30 -11
21 -22 36 -11 36 26 0 51 16 69 60 69 28 0 42 5 49 19 12 21 -2 31 -42 31 -42
0 -47 11 -31 76 18 79 51 154 68 154 11 0 38 -46 41 -70 3 -19 38 -85 68 -126
19 -27 43 -74 51 -104 l16 -55 -6 45 c-3 27 -26 85 -58 145 -72 134 -84 174
-62 208 21 31 75 42 93 18 7 -9 3 12 -8 46 -26 79 -54 103 -120 103 -51 0 -66
-10 -112 -77 -22 -34 -39 -43 -36 -20 1 6 1 31 0 55 l-1 42 -314 0 c-274 -1
-315 -3 -320 -17z m794 -28 c14 -8 20 -14 14 -15 -24 0 -84 -143 -114 -270
-13 -55 -14 -58 -28 -93 -7 -16 -12 -32 -12 -36 0 -4 -6 -19 -12 -34 -16 -32
-42 -35 -66 -6 -9 12 -29 35 -44 52 -31 35 -35 69 -17 145 10 39 26 61 95 129
46 45 84 86 84 91 0 9 58 52 70 51 3 0 16 -6 30 -14z"/>
<path d="M1925 5931 c13 -21 -127 -40 -151 -20 -21 17 -44 20 -63 8 -14 -9
-14 -10 1 -5 9 2 19 2 22 -1 7 -7 -57 -40 -95 -48 -16 -4 -31 -11 -34 -16 -4
-5 -21 -10 -38 -10 -21 -1 -25 -3 -12 -6 39 -10 37 -21 -3 -16 -43 6 -77 -10
-77 -37 0 -10 -11 -16 -31 -17 -17 0 -48 -13 -69 -28 -22 -14 -47 -24 -57 -22
-12 4 -18 -1 -18 -11 0 -15 -2 -15 -10 -2 -8 13 -10 12 -10 -2 0 -10 -5 -18
-12 -18 -6 0 -9 -3 -5 -6 7 -7 -24 -44 -37 -44 -11 0 -56 -48 -56 -60 0 -5 -9
-12 -20 -15 -11 -4 -17 -11 -14 -17 4 -6 1 -14 -6 -18 -7 -4 -9 -13 -6 -19 11
-17 26 -3 26 22 0 17 2 19 10 7 6 -9 5 -19 -3 -29 -9 -11 -9 -15 1 -18 6 -3
12 -11 12 -18 0 -7 10 -24 22 -38 12 -14 27 -42 33 -63 7 -27 17 -40 30 -41
20 -3 20 -3 0 6 -11 5 -14 10 -8 10 7 1 12 6 10 13 -3 17 52 25 91 13 28 -9
32 -13 27 -37 -6 -24 -4 -26 19 -24 18 2 30 -4 41 -20 9 -13 22 -24 31 -24 8
0 13 -4 10 -9 -9 -13 46 -30 122 -37 59 -6 65 -5 49 8 -16 12 -14 13 24 10 29
-3 40 -1 35 7 -4 6 -14 11 -22 11 -8 0 -14 4 -14 10 0 6 -9 6 -23 1 -36 -14
-52 1 -27 24 17 15 23 17 29 6 7 -11 10 -11 14 0 4 12 6 12 6 0 1 -11 5 -10
20 3 18 16 20 16 33 -3 15 -21 15 -21 27 6 11 25 14 26 23 10 5 -10 7 -25 4
-33 -7 -18 -4 -18 41 1 20 8 33 18 30 22 -4 3 -14 0 -22 -7 -11 -9 -19 -10
-26 -3 -15 15 -2 53 16 47 8 -3 19 -3 24 0 12 8 3 36 -11 36 -5 0 -6 -4 -3
-10 4 -6 -5 -10 -20 -10 -15 0 -35 -5 -45 -10 -13 -7 -21 -7 -25 0 -3 5 3 10
15 10 12 0 19 4 15 9 -3 6 4 15 15 21 11 6 20 7 20 3 0 -4 20 13 45 37 43 42
45 43 45 19 0 -14 3 -29 8 -33 4 -4 7 -13 7 -19 0 -7 15 -12 35 -12 47 -1 132
49 123 72 -5 12 -2 15 9 10 12 -4 15 0 11 16 -4 18 -3 19 6 7 6 -8 11 -10 11
-4 0 7 10 15 23 18 22 7 22 7 2 15 -12 5 -27 17 -35 27 -12 16 -12 17 0 7 18
-16 51 -17 48 -1 -4 15 -44 45 -118 90 -73 43 -69 42 -195 41 -152 -2 -188 -5
-204 -17 -21 -16 -37 -15 -37 3 0 10 7 17 16 17 54 1 71 5 64 16 -4 7 -3 8 5
4 12 -8 41 16 41 33 0 6 6 11 13 11 6 0 25 7 41 15 22 11 26 12 17 2 -6 -8 -8
-17 -4 -20 3 -4 0 -7 -7 -7 -7 0 -11 -2 -8 -5 2 -3 29 2 58 11 31 9 67 13 86
9 23 -4 41 -1 58 10 16 11 26 13 31 6 6 -10 -8 -16 -29 -12 -5 1 -4 -5 4 -13
7 -9 21 -16 31 -16 11 0 19 -4 19 -9 0 -5 20 -9 45 -8 25 1 45 6 45 10 0 5 4
6 9 2 5 -3 13 4 16 16 6 17 9 18 16 8 5 -8 3 -16 -4 -21 -7 -4 13 -8 43 -8 35
1 62 6 75 17 19 15 19 15 -5 9 -14 -3 -34 -8 -45 -11 -11 -3 -28 0 -38 7 -16
12 -14 13 13 15 49 3 57 6 57 19 0 7 -5 10 -11 8 -6 -2 -24 0 -41 5 -23 7 -25
9 -9 10 12 1 27 8 34 16 10 13 9 15 -9 15 -28 0 -27 20 2 21 16 1 18 2 5 6
-10 2 -18 9 -18 15 0 5 -13 7 -32 3 -32 -6 -31 -5 7 13 40 18 40 19 13 24 -18
3 -25 1 -21 -6 5 -8 3 -8 -8 0 -8 6 -25 14 -39 17 -24 6 -24 5 -6 -8 16 -12
16 -15 4 -15 -8 0 -22 8 -31 18 -12 13 -29 17 -67 16 -28 -2 -48 0 -46 4 2 4
-9 8 -25 9 -16 1 -27 -2 -24 -6z m-329 -440 c-3 -5 13 -29 35 -55 28 -32 53
-49 82 -57 34 -9 38 -13 23 -19 -11 -3 -23 -15 -27 -26 -7 -17 -8 -17 -8 -1
-1 22 -19 22 -43 0 -10 -9 -18 -11 -18 -5 0 6 -22 10 -55 9 -46 -2 -54 1 -50
14 3 9 -1 22 -10 29 -17 15 -21 35 -3 24 7 -5 9 -1 6 13 -4 15 1 25 18 34 13
7 24 18 24 25 0 7 6 15 13 17 18 8 19 8 13 -2z"/>
<path d="M3023 3363 c-13 -9 -49 -16 -83 -17 -33 0 -60 -2 -60 -4 0 -2 13 -14
29 -28 37 -31 45 -69 17 -83 -22 -12 -7 -11 138 5 l58 7 -5 44 c-4 36 -2 43
10 39 8 -3 16 -6 18 -6 2 0 1 -16 -2 -36 l-6 -36 34 8 c19 4 46 8 61 9 33 0
44 21 19 34 -20 11 -144 59 -181 71 -17 5 -33 2 -47 -7z"/>
<path d="M2606 2991 c-4 -5 4 -7 16 -4 23 5 23 5 3 -11 l-20 -16 20 7 c11 3
17 3 13 -2 -4 -4 -3 -14 3 -22 9 -11 15 -11 28 -1 9 8 8 3 -4 -11 -17 -21 -18
-24 -2 -18 12 4 17 1 18 -11 0 -14 2 -14 9 3 8 20 9 20 9 -1 1 -15 7 -20 23
-19 29 2 43 -12 77 -80 15 -30 30 -52 33 -50 3 3 -1 31 -8 63 -8 31 -14 68
-14 81 0 14 -12 42 -26 63 l-27 38 -73 0 c-40 0 -75 -4 -78 -9z"/>
<path d="M1805 2755 c-40 -8 -53 -13 -40 -17 14 -4 10 -6 -13 -7 -22 -1 -31
-5 -26 -13 4 -6 3 -8 -4 -4 -6 3 -13 2 -17 -4 -3 -5 -16 -8 -28 -5 -21 6 -66
-27 -66 -48 0 -10 -37 -38 -76 -57 -16 -8 -40 -25 -52 -37 -12 -13 -27 -23
-33 -23 -5 0 -10 -4 -10 -9 0 -5 -10 -13 -22 -17 -12 -3 -28 -12 -34 -18 -7
-6 -47 -36 -88 -66 -42 -30 -76 -61 -76 -67 0 -7 -4 -13 -10 -13 -5 0 -10 -7
-10 -15 0 -8 -4 -15 -10 -15 -13 0 -13 -57 0 -65 6 -4 10 -14 9 -23 -3 -34 1
-53 11 -47 6 3 10 -1 10 -10 0 -26 29 -50 43 -36 6 6 18 11 27 11 23 1 91 35
83 43 -3 4 -1 7 5 7 6 0 13 -13 17 -30 6 -28 16 -36 40 -30 6 1 15 3 22 3 7 0
10 4 7 9 -3 5 -9 6 -14 3 -15 -9 -22 29 -6 40 8 6 17 28 20 50 4 21 14 48 24
59 32 37 41 46 48 46 4 0 12 8 19 17 11 15 15 11 32 -29 60 -135 234 -117 256
26 7 47 20 61 44 51 10 -5 24 -7 31 -6 6 1 12 -2 12 -7 0 -5 10 -8 23 -8 15 1
22 -4 21 -16 -1 -10 5 -18 13 -18 8 0 11 -5 7 -12 -4 -7 -3 -8 5 -4 6 4 9 12
6 17 -4 5 -1 9 4 9 16 0 13 53 -5 78 -8 12 -12 22 -7 22 4 0 -1 7 -11 15 -19
14 -18 15 10 16 23 1 25 3 7 6 -13 2 -23 8 -23 12 0 4 -28 9 -63 10 -60 2
-153 -24 -291 -83 -21 -9 -42 -14 -46 -11 -4 3 -10 -2 -14 -10 -3 -8 -13 -15
-22 -15 -13 0 -9 8 16 30 18 16 42 32 52 36 10 3 16 10 13 15 -4 5 1 9 9 9 8
0 19 6 23 14 10 17 117 96 131 96 5 0 19 9 32 20 13 11 29 20 37 20 7 0 13 4
13 9 0 5 10 13 23 16 26 9 87 53 87 64 0 5 -11 6 -25 3 -14 -2 -25 0 -25 6 0
15 -59 19 -125 7z"/>
<path d="M2888 2503 c4 -157 4 -157 16 -166 8 -6 8 -10 0 -13 -8 -4 -5 -96 4
-119 1 -3 2 -15 2 -27 0 -17 6 -23 25 -24 14 -1 48 -17 77 -35 60 -39 103 -47
87 -17 -15 27 7 23 39 -8 26 -25 26 -26 5 -21 -13 3 -23 1 -23 -4 0 -5 8 -9
18 -10 14 0 14 -2 -3 -9 -13 -6 -15 -9 -5 -9 13 -1 13 -2 0 -12 -12 -7 -8 -9
15 -7 17 2 29 6 28 11 -2 4 -3 21 -3 37 0 19 -5 30 -14 30 -8 0 -18 5 -22 12
-5 8 -2 9 9 5 10 -3 17 -2 17 3 0 6 -6 10 -12 10 -9 0 -9 3 -2 8 7 5 6 19 -2
47 -8 27 -13 33 -13 18 -1 -16 -7 -23 -20 -23 -22 0 -23 29 -1 47 13 11 13 12
-1 13 -22 0 -48 30 -26 30 12 0 27 19 27 36 0 2 -16 -8 -36 -21 -41 -28 -81
-32 -110 -11 -15 12 -20 32 -26 108 -17 236 -55 329 -50 121z"/>
<path d="M395 2132 c-4 -5 -93 -11 -210 -16 -27 -1 -64 -10 -81 -20 -27 -16
-31 -24 -30 -59 1 -23 9 -50 18 -61 65 -78 98 -122 98 -133 0 -21 56 -74 79
-76 12 -1 21 -5 21 -9 0 -4 9 -8 20 -8 20 0 60 -32 60 -49 0 -14 26 -21 37
-10 6 6 16 2 28 -11 10 -11 25 -20 34 -20 14 1 14 2 -1 14 -22 16 -23 27 -3
20 8 -4 15 -1 15 6 0 6 4 9 9 6 5 -3 11 0 14 7 4 10 -6 14 -36 15 -23 1 -46 7
-52 13 -7 7 -5 8 6 4 14 -5 16 2 14 43 -1 27 -4 53 -7 58 -7 12 5 46 16 44 5
-1 12 4 17 11 6 10 13 7 29 -13 26 -33 100 -63 136 -54 40 10 84 47 103 86 12
26 23 35 41 36 14 0 32 4 39 8 11 7 13 1 9 -26 l-4 -35 33 20 c34 20 40 31 23
42 -5 3 -10 11 -10 16 0 6 5 7 10 4 6 -3 10 -1 10 6 0 6 -20 30 -44 53 -61 58
-72 65 -92 64 -11 -1 -48 6 -83 16 -60 15 -253 21 -266 8z"/>
<path d="M2933 1760 c2 -87 6 -104 22 -116 10 -8 13 -14 6 -14 -7 0 -10 -4 -6
-9 7 -13 -15 -101 -25 -101 -5 0 -11 -15 -15 -32 -4 -18 -14 -43 -22 -56 -13
-22 -13 -23 4 -14 10 5 52 15 93 22 41 7 78 14 82 16 3 2 -4 24 -17 47 -40 71
-70 247 -43 247 7 0 -2 15 -19 33 -16 17 -37 43 -46 56 -15 22 -16 18 -14 -79z"/>
<path d="M1470 1300 c-62 -15 -113 -105 -91 -163 14 -36 -14 -58 -76 -61 -26
-1 -54 -5 -60 -9 -7 -5 -19 -5 -25 -1 -7 4 -2 -5 11 -19 30 -33 62 -34 121 -4
43 21 45 24 46 67 1 48 29 114 60 141 11 9 33 21 49 26 30 10 38 27 13 30 -7
0 -29 -3 -48 -7z"/>
<path d="M2988 1163 c-7 -10 -33 -34 -58 -53 -25 -19 -65 -56 -90 -81 -52 -54
-106 -74 -184 -66 -30 2 -43 1 -33 -4 8 -5 18 -20 21 -34 4 -14 11 -25 17 -25
6 0 7 -4 4 -10 -3 -5 -1 -10 6 -10 7 0 10 -3 6 -6 -3 -3 -2 -17 3 -30 7 -19 6
-24 -5 -24 -8 0 -15 -9 -15 -19 0 -21 -38 -93 -52 -99 -4 -2 -8 -11 -8 -19 0
-9 -3 -13 -7 -10 -10 11 -33 -14 -33 -37 0 -11 -7 -30 -15 -40 -8 -11 -15 -26
-15 -33 0 -8 -13 -28 -30 -46 -16 -18 -30 -37 -30 -43 0 -7 -7 -15 -16 -18 -9
-4 -14 -9 -11 -13 4 -3 -5 -14 -18 -25 -14 -11 -25 -28 -25 -38 0 -19 -111
-140 -129 -140 -5 0 -16 -6 -23 -13 -16 -16 -159 -70 -166 -62 -3 2 -11 0 -17
-5 -7 -6 -25 -11 -41 -13 -16 -2 -42 -9 -59 -16 -16 -7 -37 -14 -45 -16 -8 -2
-15 -4 -15 -5 0 -7 -89 -9 -101 -2 -11 6 -26 5 -42 -4 -19 -10 -29 -10 -39 -2
-8 6 -16 8 -20 5 -3 -4 -11 -3 -17 2 -6 5 -29 14 -51 20 -31 8 -60 31 -121 93
-78 81 -134 148 -134 161 0 4 10 7 23 8 21 0 21 1 2 9 -18 8 -18 9 5 9 14 1
35 4 48 7 l23 7 -23 16 c-13 8 -31 14 -42 13 -12 -3 -16 0 -11 9 6 8 1 11 -18
7 -18 -4 -24 -1 -20 9 3 9 0 11 -10 7 -17 -6 -12 -34 6 -34 6 0 8 -3 4 -6 -3
-3 -19 3 -35 15 -17 12 -38 21 -49 21 -15 0 -16 2 -3 11 12 9 11 10 -7 6 -17
-4 -33 5 -60 31 -20 21 -40 36 -45 34 -9 -2 -144 133 -165 165 -6 10 -16 17
-21 16 -6 -2 -14 6 -17 17 -4 11 -14 20 -22 20 -10 0 14 -31 59 -78 108 -110
141 -150 133 -162 -5 -8 -11 -7 -21 1 -12 9 -13 9 -9 -3 6 -15 -27 -29 -170
-70 -65 -18 -291 -76 -325 -83 -8 -2 -42 -10 -75 -18 -33 -9 -71 -18 -85 -21
-14 -3 -54 -13 -90 -21 -36 -9 -74 -16 -85 -16 -10 0 -25 -5 -32 -11 -8 -6
-16 -8 -20 -5 -3 4 -12 2 -19 -3 -6 -6 -16 -10 -20 -9 -25 4 -54 -2 -49 -11 5
-8 -22 -13 -51 -9 -4 0 -10 -4 -13 -9 -3 -5 -19 -13 -36 -19 l-30 -10 -3 -111
-3 -112 1348 0 c741 0 1353 4 1358 8 13 9 55 93 55 110 0 7 4 20 9 30 5 9 19
42 31 72 12 30 29 70 37 89 7 18 23 61 34 95 15 44 32 72 62 99 l42 38 -40
-25 c-46 -30 -108 -34 -143 -10 -27 18 -29 63 -7 144 8 30 15 93 15 140 1 160
19 199 115 247 76 38 165 95 165 104 0 5 10 9 23 10 21 1 21 1 -3 8 -68 21
-98 22 -112 4z"/>
<path d="M1832 919 c-24 -3 -47 -11 -51 -18 -4 -6 -22 -13 -39 -15 -17 -3 -42
-12 -54 -20 -12 -9 -30 -16 -40 -16 -9 0 -32 -9 -50 -19 -18 -11 -42 -19 -53
-17 -20 3 -101 -20 -120 -34 -5 -4 -32 -11 -60 -15 -34 -5 -65 -18 -96 -42
-42 -32 -45 -37 -35 -59 7 -15 17 -23 26 -20 8 2 30 9 48 14 19 7 32 7 32 1 0
-5 5 -9 11 -9 6 0 9 6 6 14 -4 10 0 14 13 11 13 -2 20 4 24 21 4 13 14 24 24
25 46 3 70 7 102 17 19 6 49 13 65 15 41 7 66 18 89 39 11 10 25 18 32 18 7 0
15 8 18 18 3 9 18 22 33 29 85 36 109 43 144 43 21 0 40 4 43 9 8 12 -57 18
-112 10z"/>
<path d="M3195 880 c-38 -23 -62 -30 -102 -30 -39 0 -53 -4 -53 -14 0 -8 5
-16 12 -18 9 -3 8 -15 -4 -49 -9 -24 -19 -68 -23 -98 -5 -49 -5 -52 10 -37 13
13 20 13 35 4 15 -10 22 -10 32 0 6 6 19 12 28 12 22 0 70 24 95 48 11 10 34
18 50 18 l30 0 3 73 c3 65 0 77 -19 97 -28 30 -33 30 -94 -6z"/>
<path d="M3275 650 c-30 -12 -71 -61 -84 -99 -22 -67 -10 -122 62 -281 25 -55
25 -55 25 -20 0 19 6 67 12 105 15 86 24 305 13 304 -4 0 -17 -4 -28 -9z"/>
<path d="M1780 560 c-181 -49 -226 -60 -253 -60 -37 0 -107 19 -127 35 -8 7
-29 17 -47 23 -31 10 -32 10 -20 -9 7 -12 18 -17 30 -13 9 3 16 1 15 -5 -2 -5
24 -26 57 -46 51 -31 68 -36 121 -36 60 0 110 8 129 20 6 4 42 18 82 31 40 13
70 26 68 29 -3 2 3 10 13 17 34 25 -1 32 -68 14z"/>
</g>
</svg>
